<mxfile host="app.diagrams.net" modified="2024-04-18T04:22:49.673Z" agent="Mozilla/5.0 (Windows NT 10.0; Win64; x64) AppleWebKit/537.36 (KHTML, like Gecko) Chrome/123.0.0.0 Safari/537.36" version="24.2.3" etag="oVJ3oRKRZ8mIfJZmkS0t" type="github">
  <diagram name="Page-1" id="7N-Rsy6p0LcEQic0DIMs">
    <mxGraphModel>
      <root>
        <mxCell id="0" />
        <mxCell id="1" parent="0" />
      </root>
    </mxGraphModel>
  </diagram>
</mxfile>
